<?xml version="1.0" encoding="UTF-8" standalone="no"?>
<!-- Created with Inkscape (http://www.inkscape.org/) -->

<svg
   width="210mm"
   height="297mm"
   viewBox="0 0 210 297"
   version="1.1"
   id="svg1"
   xml:space="preserve"
   inkscape:version="1.3 (0e150ed6c4, 2023-07-21)"
   sodipodi:docname="cv.svg"
   inkscape:export-filename="cv.pdf"
   inkscape:export-xdpi="241.90475"
   inkscape:export-ydpi="241.90475"
   xmlns:inkscape="http://www.inkscape.org/namespaces/inkscape"
   xmlns:sodipodi="http://sodipodi.sourceforge.net/DTD/sodipodi-0.dtd"
   xmlns:xlink="http://www.w3.org/1999/xlink"
   xmlns="http://www.w3.org/2000/svg"
   xmlns:svg="http://www.w3.org/2000/svg"><sodipodi:namedview
     id="namedview1"
     pagecolor="#ffffff"
     bordercolor="#000000"
     borderopacity="0.25"
     inkscape:showpageshadow="2"
     inkscape:pageopacity="0.0"
     inkscape:pagecheckerboard="0"
     inkscape:deskcolor="#d1d1d1"
     inkscape:document-units="mm"
     inkscape:zoom="0.69753788"
     inkscape:cx="338.33288"
     inkscape:cy="559.82623"
     inkscape:window-width="1920"
     inkscape:window-height="1009"
     inkscape:window-x="-8"
     inkscape:window-y="1042"
     inkscape:window-maximized="1"
     inkscape:current-layer="layer1" /><defs
     id="defs1"><rect
       x="18.897638"
       y="264.56693"
       width="264.56693"
       height="592.73418"
       id="rect6" /><clipPath
       clipPathUnits="userSpaceOnUse"
       id="clipPath6"><circle
         style="opacity:0.86;fill:#9db4c0;fill-opacity:1;stroke-width:0.952219"
         id="circle6"
         cx="37.5"
         cy="37.5"
         r="32.5" /></clipPath><rect
       x="18.897638"
       y="264.56693"
       width="264.56693"
       height="592.73418"
       id="rect8" /><rect
       x="18.897638"
       y="264.56693"
       width="264.56693"
       height="592.73418"
       id="rect11" /><rect
       x="18.897638"
       y="264.56693"
       width="264.56693"
       height="592.73418"
       id="rect12" /><rect
       x="18.897638"
       y="264.56693"
       width="264.56693"
       height="592.73418"
       id="rect14" /><rect
       x="18.897638"
       y="264.56693"
       width="264.56693"
       height="592.73418"
       id="rect22" /><rect
       x="18.897638"
       y="264.56693"
       width="264.56693"
       height="592.73418"
       id="rect29" /><rect
       x="18.897638"
       y="264.56693"
       width="264.56693"
       height="592.73418"
       id="rect32" /><rect
       x="18.897638"
       y="264.56693"
       width="264.56693"
       height="592.73418"
       id="rect33" /><rect
       x="18.897638"
       y="264.56693"
       width="264.56693"
       height="592.73418"
       id="rect39" /><rect
       x="18.897638"
       y="264.56693"
       width="433.73337"
       height="584.65819"
       id="rect41" /><rect
       x="18.897638"
       y="264.56693"
       width="433.73337"
       height="584.65819"
       id="rect43" /><rect
       x="18.897638"
       y="264.56693"
       width="409.3628"
       height="577.34266"
       id="rect44" /><rect
       x="18.897638"
       y="264.56693"
       width="433.73337"
       height="584.65819"
       id="rect46" /><rect
       x="18.897638"
       y="264.56693"
       width="409.3628"
       height="577.34266"
       id="rect47" /><rect
       x="18.897638"
       y="264.56693"
       width="433.73337"
       height="584.65819"
       id="rect48" /><rect
       x="18.897638"
       y="264.56693"
       width="409.3628"
       height="577.34266"
       id="rect49" /><rect
       x="18.897638"
       y="264.56693"
       width="433.73337"
       height="584.65819"
       id="rect50" /><rect
       x="18.897638"
       y="264.56693"
       width="409.3628"
       height="577.34266"
       id="rect51" /><rect
       x="18.897638"
       y="264.56693"
       width="433.73337"
       height="584.65819"
       id="rect52" /><rect
       x="18.897638"
       y="264.56693"
       width="409.3628"
       height="577.34266"
       id="rect53" /><rect
       x="18.897638"
       y="264.56693"
       width="433.73337"
       height="584.65819"
       id="rect58" /><rect
       x="18.897638"
       y="264.56693"
       width="409.3628"
       height="577.34266"
       id="rect9" /><rect
       x="18.897638"
       y="264.56693"
       width="409.3628"
       height="577.34266"
       id="rect15" /><rect
       x="18.897638"
       y="264.56693"
       width="409.3628"
       height="577.34266"
       id="rect23" /></defs><g
     inkscape:label="Layer 1"
     inkscape:groupmode="layer"
     id="layer1"><g
       id="g33"
       inkscape:label="achtergrond"><rect
         style="opacity:1;fill:#ffffff;fill-opacity:1;stroke-width:1.93933"
         id="rect2"
         width="135"
         height="297"
         x="75"
         y="0"
         inkscape:label="achtergrondRechts" /><rect
         style="opacity:1;fill:#9db4c0;fill-opacity:1;stroke-width:1.4455"
         id="rect1"
         width="75"
         height="297"
         x="0"
         y="0"
         inkscape:label="achtergrondLlinks" /></g><g
       id="g39"
       inkscape:label="links"><image
         width="65"
         height="65"
         preserveAspectRatio="none"
         xlink:href="fotoIljas.png"
         id="image1"
         x="5"
         y="5"
         clip-path="url(#clipPath6)"
         inkscape:label="headshot" /><g
         id="g34"
         inkscape:label="contact"><text
           xml:space="preserve"
           transform="matrix(0.26458333,0,0,0.26458333,-0.41017753,9.946506)"
           id="text6"
           style="font-size:37.3333px;line-height:1.2;font-family:'Franklin Gothic Medium Cond';-inkscape-font-specification:'Franklin Gothic Medium Cond';text-align:center;white-space:pre;shape-inside:url(#rect6);display:inline;opacity:1;fill:#9db4c0;fill-opacity:1;stroke-width:2.89512"
           x="-53.119747"
           y="0"
           inkscape:label="contactTitel"><tspan
             x="18.898438"
             y="297.66669"
             id="tspan2"><tspan
               style="text-align:start;fill:#ffffff"
               id="tspan1">Contact&#10;</tspan></tspan></text><rect
           style="opacity:1;fill:#ffffff;fill-opacity:1;stroke-width:0.766"
           id="rect7"
           width="65"
           height="1"
           x="5.0002117"
           y="90"
           inkscape:label="contactStreep" /><text
           xml:space="preserve"
           transform="matrix(0.26458176,0,0,0.26458333,14.713188,23.133305)"
           id="text7"
           style="font-size:21.3333px;line-height:1.8;font-family:'Franklin Gothic Medium Cond';-inkscape-font-specification:'Franklin Gothic Medium Cond';text-align:center;white-space:pre;shape-inside:url(#rect8);display:inline;opacity:1;fill:#9db4c0;fill-opacity:1;stroke-width:2.89512"
           x="-53.119747"
           y="0"
           inkscape:label="contactTekst"><tspan
             x="18.898438"
             y="289.88083"
             id="tspan4"><tspan
               style="text-align:start;fill:#ffffff"
               id="tspan3">+32 468 23 06 67&#10;</tspan></tspan><tspan
             x="18.898438"
             y="328.28076"
             id="tspan6"><tspan
               style="text-align:start;fill:#ffffff"
               id="tspan5">iljas.leys@hotmail.com&#10;</tspan></tspan><tspan
             x="18.898438"
             y="366.68069"
             id="tspan8"><tspan
               style="text-align:start;fill:#ffffff"
               id="tspan7">Kasterlee</tspan></tspan></text><g
           style="fill:none;stroke:#5b6b73;stroke-opacity:1"
           id="g8"
           transform="matrix(0.29999197,0,0,0.29999197,9.8416679,94.286528)"
           inkscape:label="contactTelefoon"><path
             d="M 21,5.5 C 21,14.0604 14.0604,21 5.5,21 5.11378,21 4.73086,20.9859 4.35172,20.9581 3.91662,20.9262 3.69906,20.9103 3.50103,20.7963 3.33701,20.7019 3.18146,20.5345 3.09925,20.364 3,20.1582 3,19.9181 3,19.438 V 16.6207 C 3,16.2169 3,16.015 3.06645,15.842 3.12515,15.6891 3.22049,15.553 3.3441,15.4456 3.48403,15.324 3.67376,15.255 4.05321,15.117 l 3.20684,-1.1661 c 0.44148,-0.1605 0.66222,-0.2408 0.87165,-0.2272 0.18467,0.012 0.36238,0.0751 0.51336,0.1821 0.17122,0.1213 0.29207,0.3227 0.53376,0.7256 L 10,16 c 2.6499,-1.2001 4.7981,-3.3511 6,-6 L 14.6314,9.17882 C 14.2285,8.93713 14.0271,8.81628 13.9058,8.64506 13.7988,8.49408 13.7357,8.31637 13.7237,8.1317 13.7101,7.92227 13.7904,7.70153 13.9509,7.26005 v 0 L 15.117,4.05321 C 15.255,3.67376 15.324,3.48403 15.4456,3.3441 15.553,3.22049 15.6891,3.12515 15.842,3.06645 16.015,3 16.2169,3 16.6207,3 h 2.8173 c 0.4801,0 0.7202,0 0.926,0.09925 0.1705,0.08221 0.3379,0.23776 0.4323,0.40178 0.114,0.19804 0.1299,0.41559 0.1618,0.8507 C 20.9859,4.73086 21,5.11378 21,5.5 Z"
             stroke="#000000"
             stroke-width="2"
             stroke-linecap="round"
             stroke-linejoin="round"
             id="path1"
             style="stroke:#5b6b73;stroke-opacity:1" /></g><g
           style="fill:none;stroke:#5c6b73;stroke-opacity:1"
           id="g9"
           transform="matrix(0.31242704,0,0,0.31242704,9.6921913,104.36177)"
           inkscape:label="contactMail"><path
             d="m 4,18 5,-6 m 11,6 -5,-6 M 3,8 l 7.225,4.8166 c 0.6415,0.4277 0.9622,0.6416 1.3089,0.7246 0.3064,0.0735 0.6258,0.0735 0.9322,0 0.3467,-0.083 0.6674,-0.2969 1.3089,-0.7246 L 21,8 M 6.2,19 h 11.6 c 1.1201,0 1.6802,0 2.108,-0.218 0.3763,-0.1917 0.6823,-0.4977 0.874,-0.874 C 21,17.4802 21,16.9201 21,15.8 V 8.2 C 21,7.0799 21,6.51984 20.782,6.09202 20.5903,5.71569 20.2843,5.40973 19.908,5.21799 19.4802,5 18.9201,5 17.8,5 H 6.2 C 5.0799,5 4.51984,5 4.09202,5.21799 3.71569,5.40973 3.40973,5.71569 3.21799,6.09202 3,6.51984 3,7.07989 3,8.2 v 7.6 c 0,1.1201 0,1.6802 0.21799,2.108 0.19174,0.3763 0.4977,0.6823 0.87403,0.874 C 4.51984,19 5.07989,19 6.2,19 Z"
             stroke="#000000"
             stroke-width="2"
             stroke-linecap="round"
             stroke-linejoin="round"
             id="path1-2"
             style="stroke:#5c6b73;stroke-opacity:1" /></g><g
           style="fill:none;stroke:#5c6b73;stroke-opacity:1"
           id="g10"
           transform="matrix(0.30001816,0,0,0.30001816,9.841098,114.60179)"
           inkscape:label="contactAdres"><path
             d="M 12,21 C 15.5,17.4 19,14.1764 19,10.2 19,6.22355 15.866,3 12,3 8.13401,3 5,6.22355 5,10.2 5,14.1764 8.5,17.4 12,21 Z"
             stroke="#000000"
             stroke-width="2"
             stroke-linecap="round"
             stroke-linejoin="round"
             id="path1-0"
             style="stroke:#5c6b73;stroke-opacity:1" /><path
             d="m 12,13 c 1.6569,0 3,-1.3431 3,-3 0,-1.65685 -1.3431,-3 -3,-3 -1.6569,0 -3,1.34315 -3,3 0,1.6569 1.3431,3 3,3 z"
             stroke="#000000"
             stroke-width="2"
             stroke-linecap="round"
             stroke-linejoin="round"
             id="path2"
             style="stroke:#5c6b73;stroke-opacity:1" /></g></g><g
         id="g35"
         inkscape:label="vaardigheden"><text
           xml:space="preserve"
           transform="matrix(0.26458252,0,0,0.26458333,-0.41016082,54.946506)"
           id="text10"
           style="font-size:37.3333px;line-height:1.2;font-family:'Franklin Gothic Medium Cond';-inkscape-font-specification:'Franklin Gothic Medium Cond';text-align:center;white-space:pre;shape-inside:url(#rect11);display:inline;opacity:1;fill:#9db4c0;fill-opacity:1;stroke-width:2.89512"
           x="-53.119747"
           y="0"
           inkscape:label="vaardighedenTitel"><tspan
             x="18.898438"
             y="297.66669"
             id="tspan10"><tspan
               style="text-align:start;fill:#ffffff"
               id="tspan9">Skills&#10;</tspan></tspan></text><rect
           style="opacity:1;fill:#ffffff;fill-opacity:1;stroke-width:0.765999"
           id="rect10"
           width="64.999786"
           height="1"
           x="5.0002117"
           y="135"
           inkscape:label="vaardighedenStreep" /><text
           xml:space="preserve"
           transform="matrix(0.26458176,0,0,0.26458333,-0.28659992,68.133304)"
           id="text11"
           style="font-size:21.3333px;line-height:1.8;font-family:'Franklin Gothic Medium Cond';-inkscape-font-specification:'Franklin Gothic Medium Cond';text-align:center;white-space:pre;shape-inside:url(#rect12);display:inline;opacity:1;fill:#9db4c0;fill-opacity:1;stroke-width:2.89512"
           x="-53.119747"
           y="0"
           inkscape:label="vaardighedenTekst"><tspan
             x="18.898438"
             y="289.88083"
             id="tspan12"><tspan
               style="text-align:start;fill:#ffffff"
               id="tspan11">•   Stress-resistant&#10;</tspan></tspan><tspan
             x="18.898438"
             y="328.28076"
             id="tspan14"><tspan
               style="text-align:start;fill:#ffffff"
               id="tspan13">•   Responsible&#10;</tspan></tspan><tspan
             x="18.898438"
             y="366.68069"
             id="tspan16"><tspan
               style="text-align:start;fill:#ffffff"
               id="tspan15">•   Trustworthly</tspan></tspan></text></g><rect
         style="opacity:1;fill:#5c6b73;fill-opacity:1;stroke-width:0.541643"
         id="rect13"
         width="64.999786"
         height="0.5"
         x="5.0002117"
         y="169"
         inkscape:label="streepGrijs" /><text
         xml:space="preserve"
         transform="matrix(0.26458176,0,0,0.26458333,-0.28659993,100.91107)"
         id="text13"
         style="font-size:21.3333px;line-height:1.5;font-family:'Franklin Gothic Medium Cond';-inkscape-font-specification:'Franklin Gothic Medium Cond';text-align:center;white-space:pre;shape-inside:url(#rect14);display:inline;opacity:1;fill:#9db4c0;fill-opacity:1;stroke-width:2.89512"
         x="-53.119747"
         y="0"
         inkscape:label="talen"><tspan
           x="18.898438"
           y="286.68083"
           id="tspan18"><tspan
             style="text-align:start;fill:#ffffff"
             id="tspan17">Dutch&#10;</tspan></tspan><tspan
           x="18.898438"
           y="318.68077"
           id="tspan21"><tspan
             style="text-align:start;fill:#ffffff"
             id="tspan19">English</tspan><tspan
             style="text-align:start;fill:#ffffff"
             id="tspan20">&#10;</tspan></tspan><tspan
           x="18.898438"
           y="350.68071"
           id="tspan23"><tspan
             style="text-align:start;fill:#ffffff"
             id="tspan22">French</tspan></tspan></text><g
         id="g36"
         inkscape:label="talen"><rect
           style="opacity:1;fill:#5c6b73;fill-opacity:1;stroke:none;stroke-width:0.563272;stroke-opacity:1"
           id="rect17"
           width="29.885822"
           height="2.9753294"
           x="40.185184"
           y="190.68591"
           inkscape:label="progressFransAchtergrond" /><rect
           style="opacity:1;fill:#ffffff;fill-opacity:1;stroke:none;stroke-width:0.256076;stroke-opacity:1"
           id="rect20"
           width="6.1768398"
           height="2.9753294"
           x="40.185184"
           y="190.68591"
           inkscape:label="progressFrans" /><rect
           style="opacity:1;fill:#5c6b73;fill-opacity:1;stroke:none;stroke-width:0.563272;stroke-opacity:1"
           id="rect16"
           width="29.885822"
           height="2.9753294"
           x="40.185184"
           y="182.17339"
           inkscape:label="progressEngelsAchtergrond" /><rect
           style="opacity:1;fill:#ffffff;fill-opacity:1;stroke:none;stroke-width:0.511985;stroke-opacity:1"
           id="rect19"
           width="24.691305"
           height="2.9753294"
           x="40.185184"
           y="182.17339"
           inkscape:label="progressEngels" /><rect
           style="opacity:1;fill:#ffffff;fill-opacity:1;stroke:none;stroke-width:0.563272;stroke-opacity:1"
           id="rect18"
           width="29.885822"
           height="2.9753294"
           x="40.185184"
           y="174.29002"
           inkscape:label="progressNederlands" /></g><g
         id="g37"
         inkscape:label="eigenschappen"><text
           xml:space="preserve"
           transform="matrix(0.26458252,0,0,0.26458333,-0.41016082,126.83557)"
           id="text20"
           style="font-size:37.3333px;line-height:1.2;font-family:'Franklin Gothic Medium Cond';-inkscape-font-specification:'Franklin Gothic Medium Cond';text-align:center;white-space:pre;shape-inside:url(#rect22);display:inline;opacity:1;fill:#9db4c0;fill-opacity:1;stroke-width:2.89512"
           x="-53.119747"
           y="0"
           inkscape:label="eigenschappenTitel"><tspan
             x="18.898438"
             y="297.66669"
             id="tspan25"><tspan
               style="text-align:start;fill:#ffffff"
               id="tspan24">Qualities&#10;</tspan></tspan></text><rect
           style="opacity:1;fill:#ffffff;fill-opacity:1;stroke-width:0.765999"
           id="rect21"
           width="64.999786"
           height="1"
           x="5.0002117"
           y="206.88942"
           inkscape:label="eigenschappenStreep" /><text
           xml:space="preserve"
           transform="matrix(0.26458176,0,0,0.26458333,-0.28659993,139.91107)"
           id="text22"
           style="font-size:21.3333px;line-height:1.5;font-family:'Franklin Gothic Medium Cond';-inkscape-font-specification:'Franklin Gothic Medium Cond';text-align:center;white-space:pre;shape-inside:url(#rect29);display:inline;opacity:1;fill:#9db4c0;fill-opacity:1;stroke-width:2.89512"
           x="-53.119747"
           y="0"
           inkscape:label="eigenschappenTekst"><tspan
             x="18.898438"
             y="286.68083"
             id="tspan27"><tspan
               style="text-align:start;fill:#ffffff"
               id="tspan26">Thinking skills&#10;</tspan></tspan><tspan
             x="18.898438"
             y="318.68077"
             id="tspan29"><tspan
               style="text-align:start;fill:#ffffff"
               id="tspan28">Eager to learn&#10;</tspan></tspan><tspan
             x="18.898438"
             y="350.68071"
             id="tspan31"><tspan
               style="text-align:start;fill:#ffffff"
               id="tspan30">Teamwork</tspan></tspan></text><rect
           style="opacity:1;fill:#5c6b73;fill-opacity:1;stroke:none;stroke-width:0.563272;stroke-opacity:1"
           id="rect25"
           width="29.885822"
           height="2.9753294"
           x="40.185184"
           y="229.6859"
           inkscape:label="samenwerkenProgressAchtergrond" /><rect
           style="opacity:1;fill:#ffffff;fill-opacity:1;stroke:none;stroke-width:0.518811;stroke-opacity:1"
           id="rect28"
           width="25.354063"
           height="2.9753294"
           x="40.185184"
           y="229.6859"
           inkscape:label="samenwerkenProgress" /><rect
           style="opacity:1;fill:#5c6b73;fill-opacity:1;stroke:none;stroke-width:0.563272;stroke-opacity:1"
           id="rect24"
           width="29.885822"
           height="2.9753294"
           x="40.185184"
           y="221.17337"
           inkscape:label="leergierigProgressAchtergrond" /><rect
           style="opacity:1;fill:#ffffff;fill-opacity:1;stroke:none;stroke-width:0.537119;stroke-opacity:1"
           id="rect27"
           width="27.175165"
           height="2.9753294"
           x="40.185184"
           y="221.17337"
           inkscape:label="leergierigProgress" /><rect
           style="opacity:1;fill:#5c6b73;fill-opacity:1;stroke:none;stroke-width:0.563272;stroke-opacity:1"
           id="rect30"
           width="29.885822"
           height="2.9753294"
           x="40.185184"
           y="213.29001"
           inkscape:label="denkvermogenProgressAchtergrond" /><rect
           style="opacity:1;fill:#ffffff;fill-opacity:1;stroke:none;stroke-width:0.53712;stroke-opacity:1"
           id="rect26"
           width="27.175165"
           height="2.9753294"
           x="40.185184"
           y="213.29001"
           inkscape:label="denkvermogenProgress" /></g><g
         id="g38"
         inkscape:label="hobbys"><text
           xml:space="preserve"
           transform="matrix(0.26458252,0,0,0.26458333,-0.41016082,166.60072)"
           id="text30"
           style="font-size:37.3333px;line-height:1.2;font-family:'Franklin Gothic Medium Cond';-inkscape-font-specification:'Franklin Gothic Medium Cond';text-align:center;white-space:pre;shape-inside:url(#rect32);display:inline;opacity:1;fill:#9db4c0;fill-opacity:1;stroke-width:2.89512"
           x="-53.119747"
           y="0"
           inkscape:label="hobbysTitel"><tspan
             x="18.898438"
             y="297.66669"
             id="tspan33"><tspan
               style="text-align:start;fill:#ffffff"
               id="tspan32">Hobbies&#10;</tspan></tspan></text><rect
           style="opacity:1;fill:#ffffff;fill-opacity:1;stroke-width:0.765999"
           id="rect31"
           width="64.999786"
           height="1"
           x="5.0002117"
           y="246.65425"
           inkscape:label="hobbysStreep" /><text
           xml:space="preserve"
           transform="matrix(0.26458176,0,0,0.26458333,-0.28659993,179.78752)"
           id="text31"
           style="font-size:21.3333px;line-height:1.8;font-family:'Franklin Gothic Medium Cond';-inkscape-font-specification:'Franklin Gothic Medium Cond';text-align:center;white-space:pre;shape-inside:url(#rect33);display:inline;opacity:1;fill:#9db4c0;fill-opacity:1;stroke-width:2.89512"
           x="-53.119747"
           y="0"
           inkscape:label="hobbysTekst"><tspan
             x="18.898438"
             y="289.88083"
             id="tspan35"><tspan
               style="text-align:start;fill:#ffffff"
               id="tspan34">•   Brass band Kasterlee&#10;</tspan></tspan><tspan
             x="18.898438"
             y="328.28076"
             id="tspan37"><tspan
               style="text-align:start;fill:#ffffff"
               id="tspan36">•   Programming&#10;</tspan></tspan><tspan
             x="18.898438"
             y="366.68069"
             id="tspan39"><tspan
               style="text-align:start;fill:#ffffff"
               id="tspan38">•   Movies</tspan></tspan></text></g></g><g
       id="g40"
       inkscape:label="naamTitel"
       transform="translate(0,10.583333)"><text
         xml:space="preserve"
         style="font-size:11.2889px;line-height:1.5;font-family:'Franklin Gothic Medium Cond';-inkscape-font-specification:'Franklin Gothic Medium Cond';text-align:start;text-anchor:start;opacity:1;fill:#5c6b73;fill-opacity:1;stroke:none;stroke-width:0.766;stroke-opacity:1"
         x="111.57655"
         y="51.503994"
         id="text40"
         inkscape:label="leeftijd"><tspan
           sodipodi:role="line"
           id="tspan40"
           style="font-size:11.2889px;fill:#5c6b73;fill-opacity:1;stroke-width:0.766"
           x="111.57655"
           y="51.503994">22 years old</tspan></text><rect
         style="opacity:1;fill:#5c6b73;fill-opacity:1;stroke:none;stroke-width:0.70872;stroke-opacity:1"
         id="rect40"
         width="1.6"
         height="19.325624"
         x="104.19536"
         y="39.010689"
         inkscape:label="streepVerticaal" /><text
         xml:space="preserve"
         transform="matrix(0.26458333,0,0,0.26458333,86.715603,-58.197282)"
         id="text39"
         style="font-size:74.6667px;line-height:1.2;font-family:'Franklin Gothic Medium Cond';-inkscape-font-specification:'Franklin Gothic Medium Cond';text-align:center;white-space:pre;shape-inside:url(#rect39);display:inline;opacity:1;fill:#5c6b73;fill-opacity:1;stroke-width:2.89512"
         x="-53.119747"
         y="0"
         inkscape:label="naam"><tspan
           x="18.898438"
           y="330.76706"
           id="tspan42"><tspan
             style="text-align:start"
             id="tspan41">Iljas Leys</tspan></tspan></text></g><text
       xml:space="preserve"
       transform="matrix(0.26458333,0,0,0.26458333,64.710633,89.151951)"
       id="text41"
       style="font-size:48px;line-height:1.2;font-family:'Franklin Gothic Medium Cond';-inkscape-font-specification:'Franklin Gothic Medium Cond';text-align:center;white-space:pre;shape-inside:url(#rect41);display:inline;opacity:1;fill:#5c6b73;fill-opacity:1;stroke-width:2.89512"
       x="-53.119747"
       y="0"
       inkscape:label="werkervaringTitel"><tspan
         x="91.061523"
         y="307.12395"
         id="tspan43">Work Experience</tspan></text><rect
       style="opacity:1;fill:#5c6b73;fill-opacity:1;stroke:none;stroke-width:0.83112;stroke-opacity:1"
       id="rect42"
       width="106.11758"
       height="1.6"
       x="88.333031"
       y="174.84158"
       inkscape:label="streep" /><path
       d="m 94.509406,183.82355 a 3.0000029,3.0000338 0 0 0 -0.426848,0.0307 3.0000029,3.0000338 0 0 0 -0.418236,0.091 3.0000029,3.0000338 0 0 0 -0.401009,0.14951 3.0000029,3.0000338 0 0 0 -0.37586,0.20533 3.0000029,3.0000338 0 0 0 -0.342787,0.25633 3.0000029,3.0000338 0 0 0 -0.30248,0.30282 3.0000029,3.0000338 0 0 0 -0.25666,0.34245 3.0000029,3.0000338 0 0 0 -0.204982,0.37586 3.0000029,3.0000338 0 0 0 -0.149518,0.40102 3.0000029,3.0000338 0 0 0 -0.09095,0.41824 3.0000029,3.0000338 0 0 0 -0.03066,0.42685 3.0000029,3.0000338 0 0 0 0.03066,0.42719 3.0000029,3.0000338 0 0 0 0.09095,0.41825 3.0000029,3.0000338 0 0 0 0.149518,0.40101 3.0000029,3.0000338 0 0 0 0.204982,0.37552 3.0000029,3.0000338 0 0 0 0.25666,0.34279 3.0000029,3.0000338 0 0 0 0.30248,0.30248 3.0000029,3.0000338 0 0 0 0.342787,0.25666 3.0000029,3.0000338 0 0 0 0.37586,0.205 3.0000029,3.0000338 0 0 0 0.401009,0.14985 3.0000029,3.0000338 0 0 0 0.418236,0.091 3.0000029,3.0000338 0 0 0 0.426848,0.0302 3.0000029,3.0000338 0 0 0 0.426847,-0.0302 3.0000029,3.0000338 0 0 0 0.418236,-0.091 3.0000029,3.0000338 0 0 0 0.401009,-0.14985 3.0000029,3.0000338 0 0 0 0.37586,-0.205 3.0000029,3.0000338 0 0 0 0.342788,-0.25666 3.0000029,3.0000338 0 0 0 0.30248,-0.30248 3.0000029,3.0000338 0 0 0 0.256659,-0.34279 3.0000029,3.0000338 0 0 0 0.204986,-0.37552 3.0000029,3.0000338 0 0 0 0.149513,-0.40101 3.0000029,3.0000338 0 0 0 0.09095,-0.41825 3.0000029,3.0000338 0 0 0 0.03067,-0.42719 3.0000029,3.0000338 0 0 0 -0.0033,-0.14711 3.0000029,3.0000338 0 0 0 -0.011,-0.14676 3.0000029,3.0000338 0 0 0 -0.01793,-0.14608 3.0000029,3.0000338 0 0 0 -0.02513,-0.14538 3.0000029,3.0000338 0 0 0 -0.0324,-0.14366 3.0000029,3.0000338 0 0 0 -0.03927,-0.14195 3.0000029,3.0000338 0 0 0 -0.0462,-0.13952 3.0000029,3.0000338 0 0 0 -0.05307,-0.13746 3.0000029,3.0000338 0 0 0 -0.05961,-0.13471 3.0000029,3.0000338 0 0 0 -0.06615,-0.1316 3.0000029,3.0000338 0 0 0 -0.07269,-0.12817 3.0000029,3.0000338 0 0 0 -0.07889,-0.12436 3.0000029,3.0000338 0 0 0 -0.08475,-0.12024 3.0000029,3.0000338 0 0 0 -0.09061,-0.1161 3.0000029,3.0000338 0 0 0 -0.09612,-0.11161 3.0000029,3.0000338 0 0 0 -0.101629,-0.10646 3.0000029,3.0000338 0 0 0 -0.106454,-0.10164 3.0000029,3.0000338 0 0 0 -0.111621,-0.0961 3.0000029,3.0000338 0 0 0 -0.1161,-0.0906 3.0000029,3.0000338 0 0 0 -0.120234,-0.0848 3.0000029,3.0000338 0 0 0 -0.124368,-0.0789 3.0000029,3.0000338 0 0 0 -0.128159,-0.0727 3.0000029,3.0000338 0 0 0 -0.131603,-0.0661 3.0000029,3.0000338 0 0 0 -0.134702,-0.0596 3.0000029,3.0000338 0 0 0 -0.137116,-0.053 3.0000029,3.0000338 0 0 0 -0.13987,-0.0462 3.0000029,3.0000338 0 0 0 -0.141938,-0.0393 3.0000029,3.0000338 0 0 0 -0.143661,-0.032 3.0000029,3.0000338 0 0 0 -0.145038,-0.0255 3.0000029,3.0000338 0 0 0 -0.146417,-0.0179 3.0000029,3.0000338 0 0 0 -0.146761,-0.0107 3.0000029,3.0000338 0 0 0 -0.147106,-0.004 z m 0,0.83338 a 2.1666688,2.1666911 0 0 1 0.126091,0.004 2.1666688,2.1666911 0 0 1 0.125401,0.011 2.1666688,2.1666911 0 0 1 0.124713,0.0182 2.1666688,2.1666911 0 0 1 0.123334,0.0255 2.1666688,2.1666911 0 0 1 0.121957,0.0324 2.1666688,2.1666911 0 0 1 0.119545,0.0396 2.1666688,2.1666911 0 0 1 0.117133,0.0465 2.1666688,2.1666911 0 0 1 0.114377,0.0534 2.1666688,2.1666911 0 0 1 0.110933,0.0599 2.1666688,2.1666911 0 0 1 0.107142,0.0662 2.1666688,2.1666911 0 0 1 0.103353,0.0724 2.1666688,2.1666911 0 0 1 0.09887,0.0778 2.1666688,2.1666911 0 0 1 0.09405,0.0841 2.1666688,2.1666911 0 0 1 0.08923,0.0889 2.1666688,2.1666911 0 0 1 0.08372,0.0944 2.1666688,2.1666911 0 0 1 0.0782,0.0989 2.1666688,2.1666911 0 0 1 0.072,0.10301 2.1666688,2.1666911 0 0 1 0.0665,0.10749 2.1666688,2.1666911 0 0 1 0.05961,0.11093 2.1666688,2.1666911 0 0 1 0.0534,0.11404 2.1666688,2.1666911 0 0 1 0.04651,0.11713 2.1666688,2.1666911 0 0 1 0.03963,0.11955 2.1666688,2.1666911 0 0 1 0.03273,0.12195 2.1666688,2.1666911 0 0 1 0.02549,0.12334 2.1666688,2.1666911 0 0 1 0.01826,0.12472 2.1666688,2.1666911 0 0 1 0.01068,0.12575 2.1666688,2.1666911 0 0 1 0.0039,0.12574 2.1666688,2.1666911 0 0 1 -0.03272,0.37621 2.1666688,2.1666911 0 0 1 -0.09784,0.36485 2.1666688,2.1666911 0 0 1 -0.159508,0.34245 2.1666688,2.1666911 0 0 1 -0.216697,0.30938 2.1666688,2.1666911 0 0 1 -0.266995,0.26699 2.1666688,2.1666911 0 0 1 -0.30937,0.2167 2.1666688,2.1666911 0 0 1 -0.342443,0.15951 2.1666688,2.1666911 0 0 1 -0.364836,0.0978 2.1666688,2.1666911 0 0 1 -0.376205,0.0328 2.1666688,2.1666911 0 0 1 -0.376205,-0.0328 2.1666688,2.1666911 0 0 1 -0.364836,-0.0978 2.1666688,2.1666911 0 0 1 -0.342443,-0.15951 2.1666688,2.1666911 0 0 1 -0.309369,-0.2167 2.1666688,2.1666911 0 0 1 -0.266995,-0.26699 2.1666688,2.1666911 0 0 1 -0.216696,-0.30938 2.1666688,2.1666911 0 0 1 -0.159508,-0.34245 2.1666688,2.1666911 0 0 1 -0.09784,-0.36485 2.1666688,2.1666911 0 0 1 -0.03273,-0.37621 2.1666688,2.1666911 0 0 1 0.03273,-0.37621 2.1666688,2.1666911 0 0 1 0.09784,-0.36484 2.1666688,2.1666911 0 0 1 0.159508,-0.3421 2.1666688,2.1666911 0 0 1 0.216696,-0.30937 2.1666688,2.1666911 0 0 1 0.266995,-0.26734 2.1666688,2.1666911 0 0 1 0.309369,-0.21636 2.1666688,2.1666911 0 0 1 0.342443,-0.15986 2.1666688,2.1666911 0 0 1 0.364836,-0.0975 2.1666688,2.1666911 0 0 1 0.376205,-0.0331 z"
       style="opacity:1;stroke-width:0.388528;fill:#5c6b73;fill-opacity:1"
       id="path44" /><text
       xml:space="preserve"
       transform="matrix(0.26458333,0,0,0.26458333,96.728724,112.91935)"
       id="text45"
       style="font-size:26.6667px;line-height:1.2;font-family:'Franklin Gothic Medium Cond';-inkscape-font-specification:'Franklin Gothic Medium Cond';text-align:center;white-space:pre;shape-inside:url(#rect46);display:inline;opacity:1;fill:#5c6b73;fill-opacity:1;stroke-width:2.89512"
       x="-53.119747"
       y="0"
       inkscape:label="werkervaringTitel"><tspan
         x="18.898438"
         y="288.20952"
         id="tspan45"><tspan
           style="text-align:start"
           id="tspan44">Van Genechten</tspan></tspan></text><text
       xml:space="preserve"
       transform="matrix(0.26458176,0,0,0.26458333,95.974975,121.85415)"
       id="text46"
       style="font-size:21.3333px;line-height:1.4;font-family:'Franklin Gothic Medium Cond';-inkscape-font-specification:'Franklin Gothic Medium Cond';text-align:center;white-space:pre;shape-inside:url(#rect47);display:inline;opacity:1;fill:#5c6b73;fill-opacity:1;stroke-width:2.89512"
       x="-53.119747"
       y="0"
       inkscape:label="vaardighedenTekst"><tspan
         x="18.898438"
         y="285.61417"
         id="tspan47"><tspan
           style="text-align:start"
           id="tspan46">•   Internship associate degree&#10;</tspan></tspan><tspan
         x="18.898438"
         y="315.48078"
         id="tspan49"><tspan
           style="text-align:start"
           id="tspan48">•   Front end with React&#10;</tspan></tspan><tspan
         x="18.898438"
         y="345.34738"
         id="tspan51"><tspan
           style="text-align:start"
           id="tspan50">•   Managing component library</tspan></tspan></text><path
       d="m 94.509406,219.27773 a 3.0000029,3.0000338 0 0 0 -0.426848,0.0307 3.0000029,3.0000338 0 0 0 -0.418236,0.091 3.0000029,3.0000338 0 0 0 -0.401009,0.14951 3.0000029,3.0000338 0 0 0 -0.37586,0.20533 3.0000029,3.0000338 0 0 0 -0.342787,0.25633 3.0000029,3.0000338 0 0 0 -0.30248,0.30282 3.0000029,3.0000338 0 0 0 -0.25666,0.34245 3.0000029,3.0000338 0 0 0 -0.204982,0.37586 3.0000029,3.0000338 0 0 0 -0.149518,0.40102 3.0000029,3.0000338 0 0 0 -0.09095,0.41824 3.0000029,3.0000338 0 0 0 -0.03066,0.42685 3.0000029,3.0000338 0 0 0 0.03066,0.42719 3.0000029,3.0000338 0 0 0 0.09095,0.41825 3.0000029,3.0000338 0 0 0 0.149518,0.40101 3.0000029,3.0000338 0 0 0 0.204982,0.37552 3.0000029,3.0000338 0 0 0 0.25666,0.34279 3.0000029,3.0000338 0 0 0 0.30248,0.30248 3.0000029,3.0000338 0 0 0 0.342787,0.25666 3.0000029,3.0000338 0 0 0 0.37586,0.205 3.0000029,3.0000338 0 0 0 0.401009,0.14985 3.0000029,3.0000338 0 0 0 0.418236,0.091 3.0000029,3.0000338 0 0 0 0.426848,0.0302 3.0000029,3.0000338 0 0 0 0.426847,-0.0302 3.0000029,3.0000338 0 0 0 0.418236,-0.091 3.0000029,3.0000338 0 0 0 0.401009,-0.14985 3.0000029,3.0000338 0 0 0 0.37586,-0.205 3.0000029,3.0000338 0 0 0 0.342788,-0.25666 3.0000029,3.0000338 0 0 0 0.30248,-0.30248 3.0000029,3.0000338 0 0 0 0.256659,-0.34279 3.0000029,3.0000338 0 0 0 0.204986,-0.37552 3.0000029,3.0000338 0 0 0 0.149513,-0.40101 3.0000029,3.0000338 0 0 0 0.09095,-0.41825 3.0000029,3.0000338 0 0 0 0.03067,-0.42719 3.0000029,3.0000338 0 0 0 -0.0033,-0.14711 3.0000029,3.0000338 0 0 0 -0.011,-0.14676 3.0000029,3.0000338 0 0 0 -0.01793,-0.14608 3.0000029,3.0000338 0 0 0 -0.02513,-0.14538 3.0000029,3.0000338 0 0 0 -0.0324,-0.14366 3.0000029,3.0000338 0 0 0 -0.03927,-0.14195 3.0000029,3.0000338 0 0 0 -0.0462,-0.13952 3.0000029,3.0000338 0 0 0 -0.05307,-0.13746 3.0000029,3.0000338 0 0 0 -0.05961,-0.13471 3.0000029,3.0000338 0 0 0 -0.06615,-0.1316 3.0000029,3.0000338 0 0 0 -0.07269,-0.12817 3.0000029,3.0000338 0 0 0 -0.07889,-0.12436 3.0000029,3.0000338 0 0 0 -0.08475,-0.12024 3.0000029,3.0000338 0 0 0 -0.09061,-0.1161 3.0000029,3.0000338 0 0 0 -0.09612,-0.11161 3.0000029,3.0000338 0 0 0 -0.101629,-0.10646 3.0000029,3.0000338 0 0 0 -0.106454,-0.10164 3.0000029,3.0000338 0 0 0 -0.111621,-0.0961 3.0000029,3.0000338 0 0 0 -0.1161,-0.0906 3.0000029,3.0000338 0 0 0 -0.120234,-0.0848 3.0000029,3.0000338 0 0 0 -0.124368,-0.0789 3.0000029,3.0000338 0 0 0 -0.128159,-0.0727 3.0000029,3.0000338 0 0 0 -0.131603,-0.0661 3.0000029,3.0000338 0 0 0 -0.134702,-0.0596 3.0000029,3.0000338 0 0 0 -0.137116,-0.053 3.0000029,3.0000338 0 0 0 -0.13987,-0.0462 3.0000029,3.0000338 0 0 0 -0.141938,-0.0393 3.0000029,3.0000338 0 0 0 -0.143661,-0.032 3.0000029,3.0000338 0 0 0 -0.145038,-0.0255 3.0000029,3.0000338 0 0 0 -0.146417,-0.0179 3.0000029,3.0000338 0 0 0 -0.146761,-0.0107 3.0000029,3.0000338 0 0 0 -0.147106,-0.004 z m 0,0.83338 a 2.1666688,2.1666911 0 0 1 0.126091,0.004 2.1666688,2.1666911 0 0 1 0.125401,0.011 2.1666688,2.1666911 0 0 1 0.124713,0.0182 2.1666688,2.1666911 0 0 1 0.123334,0.0255 2.1666688,2.1666911 0 0 1 0.121957,0.0324 2.1666688,2.1666911 0 0 1 0.119545,0.0396 2.1666688,2.1666911 0 0 1 0.117133,0.0465 2.1666688,2.1666911 0 0 1 0.114377,0.0534 2.1666688,2.1666911 0 0 1 0.110933,0.0599 2.1666688,2.1666911 0 0 1 0.107142,0.0662 2.1666688,2.1666911 0 0 1 0.103353,0.0724 2.1666688,2.1666911 0 0 1 0.09887,0.0778 2.1666688,2.1666911 0 0 1 0.09405,0.0841 2.1666688,2.1666911 0 0 1 0.08923,0.0889 2.1666688,2.1666911 0 0 1 0.08372,0.0944 2.1666688,2.1666911 0 0 1 0.0782,0.0989 2.1666688,2.1666911 0 0 1 0.072,0.10301 2.1666688,2.1666911 0 0 1 0.0665,0.10749 2.1666688,2.1666911 0 0 1 0.05961,0.11093 2.1666688,2.1666911 0 0 1 0.0534,0.11404 2.1666688,2.1666911 0 0 1 0.04651,0.11713 2.1666688,2.1666911 0 0 1 0.03963,0.11955 2.1666688,2.1666911 0 0 1 0.03273,0.12195 2.1666688,2.1666911 0 0 1 0.02549,0.12334 2.1666688,2.1666911 0 0 1 0.01826,0.12472 2.1666688,2.1666911 0 0 1 0.01068,0.12575 2.1666688,2.1666911 0 0 1 0.0039,0.12574 2.1666688,2.1666911 0 0 1 -0.03272,0.37621 2.1666688,2.1666911 0 0 1 -0.09784,0.36485 2.1666688,2.1666911 0 0 1 -0.159508,0.34245 2.1666688,2.1666911 0 0 1 -0.216697,0.30938 2.1666688,2.1666911 0 0 1 -0.266995,0.26699 2.1666688,2.1666911 0 0 1 -0.30937,0.2167 2.1666688,2.1666911 0 0 1 -0.342443,0.15951 2.1666688,2.1666911 0 0 1 -0.364836,0.0978 2.1666688,2.1666911 0 0 1 -0.376205,0.0328 2.1666688,2.1666911 0 0 1 -0.376205,-0.0328 2.1666688,2.1666911 0 0 1 -0.364836,-0.0978 2.1666688,2.1666911 0 0 1 -0.342443,-0.15951 2.1666688,2.1666911 0 0 1 -0.309369,-0.2167 2.1666688,2.1666911 0 0 1 -0.266995,-0.26699 2.1666688,2.1666911 0 0 1 -0.216696,-0.30938 2.1666688,2.1666911 0 0 1 -0.159508,-0.34245 2.1666688,2.1666911 0 0 1 -0.09784,-0.36485 2.1666688,2.1666911 0 0 1 -0.03273,-0.37621 2.1666688,2.1666911 0 0 1 0.03273,-0.37621 2.1666688,2.1666911 0 0 1 0.09784,-0.36484 2.1666688,2.1666911 0 0 1 0.159508,-0.3421 2.1666688,2.1666911 0 0 1 0.216696,-0.30937 2.1666688,2.1666911 0 0 1 0.266995,-0.26734 2.1666688,2.1666911 0 0 1 0.309369,-0.21636 2.1666688,2.1666911 0 0 1 0.342443,-0.15986 2.1666688,2.1666911 0 0 1 0.364836,-0.0975 2.1666688,2.1666911 0 0 1 0.376205,-0.0331 z"
       style="opacity:1;stroke-width:0.388528;fill:#5c6b73;fill-opacity:1"
       id="path49" /><text
       xml:space="preserve"
       transform="matrix(0.26458333,0,0,0.26458333,96.728724,148.37354)"
       id="text49"
       style="font-size:26.6667px;line-height:1.2;font-family:'Franklin Gothic Medium Cond';-inkscape-font-specification:'Franklin Gothic Medium Cond';text-align:center;white-space:pre;shape-inside:url(#rect50);display:inline;opacity:1;fill:#5c6b73;fill-opacity:1;stroke-width:2.89512"
       x="-53.119747"
       y="0"
       inkscape:label="werkervaringTitel"><tspan
         x="18.898438"
         y="288.20952"
         id="tspan53"><tspan
           style="text-align:start"
           id="tspan52">Chameleon computers</tspan></tspan></text><text
       xml:space="preserve"
       transform="matrix(0.26458176,0,0,0.26458333,95.974975,157.30833)"
       id="text50"
       style="font-size:21.3333px;line-height:1.4;font-family:'Franklin Gothic Medium Cond';-inkscape-font-specification:'Franklin Gothic Medium Cond';text-align:center;white-space:pre;shape-inside:url(#rect51);display:inline;opacity:1;fill:#5c6b73;fill-opacity:1;stroke-width:2.89512"
       x="-53.119747"
       y="0"
       inkscape:label="vaardighedenTekst"><tspan
         x="18.898438"
         y="285.61417"
         id="tspan55"><tspan
           style="text-align:start"
           id="tspan54">•   Internship Secondary Education&#10;</tspan></tspan><tspan
         x="18.898438"
         y="315.48078"
         id="tspan57"><tspan
           style="text-align:start"
           id="tspan56">•   Computer repairs (software/hardware)&#10;</tspan></tspan><tspan
         x="18.898438"
         y="345.34738"
         id="tspan61"><tspan
           style="text-align:start"
           id="tspan58">•   Company visits</tspan></tspan></text><path
       d="m 94.509406,253.6736 a 3.0000029,3.0000338 0 0 0 -0.426848,0.0307 3.0000029,3.0000338 0 0 0 -0.418236,0.091 3.0000029,3.0000338 0 0 0 -0.401009,0.14951 3.0000029,3.0000338 0 0 0 -0.37586,0.20533 3.0000029,3.0000338 0 0 0 -0.342787,0.25633 3.0000029,3.0000338 0 0 0 -0.30248,0.30282 3.0000029,3.0000338 0 0 0 -0.25666,0.34245 3.0000029,3.0000338 0 0 0 -0.204982,0.37586 3.0000029,3.0000338 0 0 0 -0.149518,0.40102 3.0000029,3.0000338 0 0 0 -0.09095,0.41824 3.0000029,3.0000338 0 0 0 -0.03066,0.42685 3.0000029,3.0000338 0 0 0 0.03066,0.42719 3.0000029,3.0000338 0 0 0 0.09095,0.41825 3.0000029,3.0000338 0 0 0 0.149518,0.40101 3.0000029,3.0000338 0 0 0 0.204982,0.37552 3.0000029,3.0000338 0 0 0 0.25666,0.34279 3.0000029,3.0000338 0 0 0 0.30248,0.30248 3.0000029,3.0000338 0 0 0 0.342787,0.25666 3.0000029,3.0000338 0 0 0 0.37586,0.205 3.0000029,3.0000338 0 0 0 0.401009,0.14985 3.0000029,3.0000338 0 0 0 0.418236,0.091 3.0000029,3.0000338 0 0 0 0.426848,0.0302 3.0000029,3.0000338 0 0 0 0.426847,-0.0302 3.0000029,3.0000338 0 0 0 0.418236,-0.091 3.0000029,3.0000338 0 0 0 0.401009,-0.14985 3.0000029,3.0000338 0 0 0 0.37586,-0.205 3.0000029,3.0000338 0 0 0 0.342788,-0.25666 3.0000029,3.0000338 0 0 0 0.30248,-0.30248 3.0000029,3.0000338 0 0 0 0.256659,-0.34279 3.0000029,3.0000338 0 0 0 0.204986,-0.37552 3.0000029,3.0000338 0 0 0 0.149513,-0.40101 3.0000029,3.0000338 0 0 0 0.09095,-0.41825 3.0000029,3.0000338 0 0 0 0.03067,-0.42719 3.0000029,3.0000338 0 0 0 -0.0033,-0.14711 3.0000029,3.0000338 0 0 0 -0.011,-0.14676 3.0000029,3.0000338 0 0 0 -0.01793,-0.14608 3.0000029,3.0000338 0 0 0 -0.02513,-0.14538 3.0000029,3.0000338 0 0 0 -0.0324,-0.14366 3.0000029,3.0000338 0 0 0 -0.03927,-0.14195 3.0000029,3.0000338 0 0 0 -0.0462,-0.13952 3.0000029,3.0000338 0 0 0 -0.05307,-0.13746 3.0000029,3.0000338 0 0 0 -0.05961,-0.13471 3.0000029,3.0000338 0 0 0 -0.06615,-0.1316 3.0000029,3.0000338 0 0 0 -0.07269,-0.12817 3.0000029,3.0000338 0 0 0 -0.07889,-0.12436 3.0000029,3.0000338 0 0 0 -0.08475,-0.12024 3.0000029,3.0000338 0 0 0 -0.09061,-0.1161 3.0000029,3.0000338 0 0 0 -0.09612,-0.11161 3.0000029,3.0000338 0 0 0 -0.101629,-0.10646 3.0000029,3.0000338 0 0 0 -0.106454,-0.10164 3.0000029,3.0000338 0 0 0 -0.111621,-0.0961 3.0000029,3.0000338 0 0 0 -0.1161,-0.0906 3.0000029,3.0000338 0 0 0 -0.120234,-0.0848 3.0000029,3.0000338 0 0 0 -0.124368,-0.0789 3.0000029,3.0000338 0 0 0 -0.128159,-0.0727 3.0000029,3.0000338 0 0 0 -0.131603,-0.0661 3.0000029,3.0000338 0 0 0 -0.134702,-0.0596 3.0000029,3.0000338 0 0 0 -0.137116,-0.053 3.0000029,3.0000338 0 0 0 -0.13987,-0.0462 3.0000029,3.0000338 0 0 0 -0.141938,-0.0393 3.0000029,3.0000338 0 0 0 -0.143661,-0.032 3.0000029,3.0000338 0 0 0 -0.145038,-0.0255 3.0000029,3.0000338 0 0 0 -0.146417,-0.0179 3.0000029,3.0000338 0 0 0 -0.146761,-0.0107 3.0000029,3.0000338 0 0 0 -0.147106,-0.004 z m 0,0.83338 a 2.1666688,2.1666911 0 0 1 0.126091,0.004 2.1666688,2.1666911 0 0 1 0.125401,0.011 2.1666688,2.1666911 0 0 1 0.124713,0.0182 2.1666688,2.1666911 0 0 1 0.123334,0.0255 2.1666688,2.1666911 0 0 1 0.121957,0.0324 2.1666688,2.1666911 0 0 1 0.119545,0.0396 2.1666688,2.1666911 0 0 1 0.117133,0.0465 2.1666688,2.1666911 0 0 1 0.114377,0.0534 2.1666688,2.1666911 0 0 1 0.110933,0.0599 2.1666688,2.1666911 0 0 1 0.107142,0.0662 2.1666688,2.1666911 0 0 1 0.103353,0.0724 2.1666688,2.1666911 0 0 1 0.09887,0.0778 2.1666688,2.1666911 0 0 1 0.09405,0.0841 2.1666688,2.1666911 0 0 1 0.08923,0.0889 2.1666688,2.1666911 0 0 1 0.08372,0.0944 2.1666688,2.1666911 0 0 1 0.0782,0.0989 2.1666688,2.1666911 0 0 1 0.072,0.10301 2.1666688,2.1666911 0 0 1 0.0665,0.10749 2.1666688,2.1666911 0 0 1 0.05961,0.11093 2.1666688,2.1666911 0 0 1 0.0534,0.11404 2.1666688,2.1666911 0 0 1 0.04651,0.11713 2.1666688,2.1666911 0 0 1 0.03963,0.11955 2.1666688,2.1666911 0 0 1 0.03273,0.12195 2.1666688,2.1666911 0 0 1 0.02549,0.12334 2.1666688,2.1666911 0 0 1 0.01826,0.12472 2.1666688,2.1666911 0 0 1 0.01068,0.12575 2.1666688,2.1666911 0 0 1 0.0039,0.12574 2.1666688,2.1666911 0 0 1 -0.03272,0.37621 2.1666688,2.1666911 0 0 1 -0.09784,0.36485 2.1666688,2.1666911 0 0 1 -0.159508,0.34245 2.1666688,2.1666911 0 0 1 -0.216697,0.30938 2.1666688,2.1666911 0 0 1 -0.266995,0.26699 2.1666688,2.1666911 0 0 1 -0.30937,0.2167 2.1666688,2.1666911 0 0 1 -0.342443,0.15951 2.1666688,2.1666911 0 0 1 -0.364836,0.0978 2.1666688,2.1666911 0 0 1 -0.376205,0.0328 2.1666688,2.1666911 0 0 1 -0.376205,-0.0328 2.1666688,2.1666911 0 0 1 -0.364836,-0.0978 2.1666688,2.1666911 0 0 1 -0.342443,-0.15951 2.1666688,2.1666911 0 0 1 -0.309369,-0.2167 2.1666688,2.1666911 0 0 1 -0.266995,-0.26699 2.1666688,2.1666911 0 0 1 -0.216696,-0.30938 2.1666688,2.1666911 0 0 1 -0.159508,-0.34245 2.1666688,2.1666911 0 0 1 -0.09784,-0.36485 2.1666688,2.1666911 0 0 1 -0.03273,-0.37621 2.1666688,2.1666911 0 0 1 0.03273,-0.37621 2.1666688,2.1666911 0 0 1 0.09784,-0.36484 2.1666688,2.1666911 0 0 1 0.159508,-0.3421 2.1666688,2.1666911 0 0 1 0.216696,-0.30937 2.1666688,2.1666911 0 0 1 0.266995,-0.26734 2.1666688,2.1666911 0 0 1 0.309369,-0.21636 2.1666688,2.1666911 0 0 1 0.342443,-0.15986 2.1666688,2.1666911 0 0 1 0.364836,-0.0975 2.1666688,2.1666911 0 0 1 0.376205,-0.0331 z"
       style="opacity:1;stroke-width:0.388528;fill:#5c6b73;fill-opacity:1"
       id="path51" /><text
       xml:space="preserve"
       transform="matrix(0.26458333,0,0,0.26458333,96.728724,182.7694)"
       id="text51"
       style="font-size:26.6667px;line-height:1.2;font-family:'Franklin Gothic Medium Cond';-inkscape-font-specification:'Franklin Gothic Medium Cond';text-align:center;white-space:pre;shape-inside:url(#rect52);display:inline;opacity:1;fill:#5c6b73;fill-opacity:1;stroke-width:2.89512"
       x="-53.119747"
       y="0"
       inkscape:label="werkervaringTitel"><tspan
         x="18.898438"
         y="288.20952"
         id="tspan67"><tspan
           style="text-align:start"
           id="tspan66">Spar Lichtaart</tspan></tspan></text><text
       xml:space="preserve"
       transform="matrix(0.26458176,0,0,0.26458333,95.974975,191.7042)"
       id="text52"
       style="font-size:21.3333px;line-height:1.4;font-family:'Franklin Gothic Medium Cond';-inkscape-font-specification:'Franklin Gothic Medium Cond';text-align:center;white-space:pre;shape-inside:url(#rect53);display:inline;opacity:1;fill:#5c6b73;fill-opacity:1;stroke-width:2.89512"
       x="-53.119747"
       y="0"
       inkscape:label="vaardighedenTekst"><tspan
         x="18.898438"
         y="285.61417"
         id="tspan72"><tspan
           style="text-align:start"
           id="tspan70">•   Permanent contract&#10;</tspan></tspan><tspan
         x="18.898438"
         y="315.48078"
         id="tspan74"><tspan
           style="text-align:start"
           id="tspan73">•   All-round supermarket employee</tspan></tspan></text><rect
       style="opacity:1;fill:#5c6b73;fill-opacity:1;stroke:none;stroke-width:0.955266;stroke-opacity:1"
       id="rect54"
       width="0.87169194"
       height="30.137589"
       x="94.07357"
       y="189.50171" /><rect
       style="opacity:1;fill:#5c6b73;fill-opacity:1;stroke:none;stroke-width:0.94417;stroke-opacity:1"
       id="rect55"
       width="0.87169194"
       height="29.441486"
       x="94.07357"
       y="224.95593" /><rect
       style="opacity:1;fill:#5c6b73;fill-opacity:1;stroke:none;stroke-width:0.7125;stroke-opacity:1"
       id="rect56"
       width="0.87169194"
       height="16.765976"
       x="94.07357"
       y="259.35175" /><text
       xml:space="preserve"
       transform="matrix(0.26458333,0,0,0.26458333,49.012367,20.360281)"
       id="text56"
       style="font-size:48px;line-height:1.2;font-family:'Franklin Gothic Medium Cond';-inkscape-font-specification:'Franklin Gothic Medium Cond';text-align:center;white-space:pre;shape-inside:url(#rect58);display:inline;opacity:1;fill:#5c6b73;fill-opacity:1;stroke-width:2.89512"
       x="-53.119747"
       y="0"
       inkscape:label="werkervaringTitel"><tspan
         x="147.44043"
         y="307.12395"
         id="tspan75">Education</tspan></text><rect
       style="opacity:1;fill:#5c6b73;fill-opacity:1;stroke:none;stroke-width:0.83112;stroke-opacity:1"
       id="rect57"
       width="106.11758"
       height="1.6"
       x="88.333031"
       y="106.04982"
       inkscape:label="streep" /><rect
       style="opacity:1;fill:#5c6b73;fill-opacity:1;stroke:none;stroke-width:0.892532;stroke-opacity:1"
       id="rect59"
       width="0.87169194"
       height="26.309166"
       x="92.486069"
       y="117.28104" /><text
       xml:space="preserve"
       style="font-size:4.23333px;line-height:1.4;font-family:'Franklin Gothic Medium Cond';-inkscape-font-specification:'Franklin Gothic Medium Cond';text-align:start;text-anchor:start;opacity:0.86;fill:#5c6b73;fill-opacity:1;stroke:none;stroke-width:0.766;stroke-opacity:1"
       x="95.301727"
       y="117.49485"
       id="text59"><tspan
         sodipodi:role="line"
         id="tspan59"
         style="font-size:4.23333px;stroke-width:0.766;fill:#5c6b73;fill-opacity:1"
         x="95.301727"
         y="117.49485">Sport- en handelsschool</tspan></text><text
       xml:space="preserve"
       style="font-size:4.93889px;line-height:1.4;font-family:'Franklin Gothic Medium Cond';-inkscape-font-specification:'Franklin Gothic Medium Cond';text-align:start;text-anchor:start;opacity:0.86;fill:#5c6b73;fill-opacity:1;stroke:none;stroke-width:0.766;stroke-opacity:1"
       x="95.301727"
       y="122.78654"
       id="text60"><tspan
         sodipodi:role="line"
         id="tspan60"
         style="font-size:4.93889px;fill:#5c6b73;fill-opacity:1;stroke-width:0.766"
         x="95.301727"
         y="122.78654">DIPLOMA</tspan><tspan
         sodipodi:role="line"
         style="font-size:4.93889px;fill:#5c6b73;fill-opacity:1;stroke-width:0.766"
         x="95.301727"
         y="129.70099"
         id="tspan62">SECONDARY EDUCATION</tspan><tspan
         sodipodi:role="line"
         style="font-size:4.93889px;fill:#5c6b73;fill-opacity:1;stroke-width:0.766"
         x="95.301727"
         y="136.61543"
         id="tspan63">COMPUTER SCIENCE</tspan><tspan
         sodipodi:role="line"
         style="font-size:4.93889px;fill:#5c6b73;fill-opacity:1;stroke-width:0.766"
         x="95.301727"
         y="143.52988"
         id="tspan64">2013-2019</tspan></text><rect
       style="opacity:1;fill:#5c6b73;fill-opacity:1;stroke:none;stroke-width:0.766323;stroke-opacity:1"
       id="rect64"
       width="0.87169194"
       height="19.39472"
       x="146.99022"
       y="117.28104" /><text
       xml:space="preserve"
       style="font-size:4.23333px;line-height:1.4;font-family:'Franklin Gothic Medium Cond';-inkscape-font-specification:'Franklin Gothic Medium Cond';text-align:start;text-anchor:start;opacity:0.86;fill:#5c6b73;fill-opacity:1;stroke:none;stroke-width:0.766;stroke-opacity:1"
       x="149.80589"
       y="117.49485"
       id="text65"><tspan
         sodipodi:role="line"
         id="tspan65"
         style="font-size:4.23333px;stroke-width:0.766;fill:#5c6b73;fill-opacity:1"
         x="149.80589"
         y="117.49485">Thomas More Geel</tspan></text><text
       xml:space="preserve"
       style="font-size:4.93889px;line-height:1.4;font-family:'Franklin Gothic Medium Cond';-inkscape-font-specification:'Franklin Gothic Medium Cond';text-align:start;text-anchor:start;opacity:0.86;fill:#5c6b73;fill-opacity:1;stroke:none;stroke-width:0.766;stroke-opacity:1"
       x="149.80589"
       y="122.78654"
       id="text69"><tspan
         sodipodi:role="line"
         style="font-size:4.93889px;fill:#5c6b73;fill-opacity:1;stroke-width:0.766"
         x="149.80589"
         y="122.78654"
         id="tspan68">ASSOCIATE DEGREE</tspan><tspan
         sodipodi:role="line"
         style="font-size:4.93889px;fill:#5c6b73;fill-opacity:1;stroke-width:0.766"
         x="149.80589"
         y="129.70099"
         id="tspan71">PROGRAMMING</tspan><tspan
         sodipodi:role="line"
         style="font-size:4.93889px;fill:#5c6b73;fill-opacity:1;stroke-width:0.766"
         x="149.80589"
         y="136.61543"
         id="tspan69">2022-2024</tspan></text><text
       xml:space="preserve"
       transform="matrix(0.26458176,0,0,0.26458333,122.08177,112.70031)"
       id="text8"
       style="font-size:21.3333px;line-height:1.4;font-family:'Franklin Gothic Medium Cond';-inkscape-font-specification:'Franklin Gothic Medium Cond';text-align:center;white-space:pre;shape-inside:url(#rect9);display:inline;opacity:1;fill:#5c6b73;fill-opacity:1;stroke-width:2.89512"
       x="-53.119747"
       y="0"
       inkscape:label="vaardighedenTekst"><tspan
         x="178.42813"
         y="285.61417"
         id="tspan76">| Feb 2024</tspan></text><text
       xml:space="preserve"
       transform="matrix(0.26458176,0,0,0.26458333,122.91112,148.70055)"
       id="text9"
       style="font-size:21.3333px;line-height:1.4;font-family:'Franklin Gothic Medium Cond';-inkscape-font-specification:'Franklin Gothic Medium Cond';text-align:center;white-space:pre;shape-inside:url(#rect15);display:inline;opacity:1;fill:#5c6b73;fill-opacity:1;stroke-width:2.89512"
       x="-53.119747"
       y="0"
       inkscape:label="vaardighedenTekst"><tspan
         x="175.29272"
         y="285.61417"
         id="tspan77">| June 2019</tspan></text><text
       xml:space="preserve"
       transform="matrix(0.26458176,0,0,0.26458333,117.83883,183.09641)"
       id="text15"
       style="font-size:21.3333px;line-height:1.4;font-family:'Franklin Gothic Medium Cond';-inkscape-font-specification:'Franklin Gothic Medium Cond';text-align:center;white-space:pre;shape-inside:url(#rect23);display:inline;opacity:1;fill:#5c6b73;fill-opacity:1;stroke-width:2.89512"
       x="-53.119747"
       y="0"
       inkscape:label="vaardighedenTekst"><tspan
         x="194.46456"
         y="285.61417"
         id="tspan78">| 2022</tspan></text></g></svg>
