<?xml version="1.0" encoding="UTF-8" standalone="no"?>
<!-- Created with Inkscape (http://www.inkscape.org/) -->

<svg
   width="200mm"
   height="200mm"
   viewBox="0 0 200 200"
   version="1.1"
   id="svg1"
   inkscape:version="1.3 (0e150ed6c4, 2023-07-21)"
   sodipodi:docname="icon.svg"
   xmlns:inkscape="http://www.inkscape.org/namespaces/inkscape"
   xmlns:sodipodi="http://sodipodi.sourceforge.net/DTD/sodipodi-0.dtd"
   xmlns="http://www.w3.org/2000/svg"
   xmlns:svg="http://www.w3.org/2000/svg">
  <sodipodi:namedview
     id="namedview1"
     pagecolor="#ffffff"
     bordercolor="#000000"
     borderopacity="0.25"
     inkscape:showpageshadow="2"
     inkscape:pageopacity="0.0"
     inkscape:pagecheckerboard="0"
     inkscape:deskcolor="#d1d1d1"
     inkscape:document-units="mm"
     inkscape:zoom="0.5121316"
     inkscape:cx="304.60921"
     inkscape:cy="325.11175"
     inkscape:window-width="1920"
     inkscape:window-height="1009"
     inkscape:window-x="-8"
     inkscape:window-y="1042"
     inkscape:window-maximized="1"
     inkscape:current-layer="layer1" />
  <defs
     id="defs1" />
  <g
     inkscape:label="Layer 1"
     inkscape:groupmode="layer"
     id="layer1">
    <rect
       style="opacity:0.86;fill:#e0fbfc;fill-opacity:1;stroke-width:0.86496"
       id="rect1"
       width="160"
       height="80"
       x="20"
       y="57.666679"
       ry="10.062475" />
    <path
       d="m 72.15107,30.879524 c -0.420742,0 -0.835919,0.02119 -1.245402,0.06253 -0.409485,0.04134 -0.813005,0.102783 -1.209229,0.183452 -0.396224,0.08067 -0.785379,0.180695 -1.166337,0.298689 -0.380958,0.117995 -0.753559,0.254413 -1.117245,0.407727 -0.363685,0.153316 -0.718575,0.323416 -1.062984,0.510047 -0.344408,0.186631 -0.678363,0.389774 -1.001489,0.607715 -0.323126,0.21794 -0.635506,0.450904 -0.935343,0.698148 -0.299838,0.247246 -0.587421,0.508355 -0.861964,0.782898 -0.274545,0.274545 -0.535654,0.562642 -0.782898,0.86248 -0.247246,0.299838 -0.480725,0.6117 -0.698666,0.934827 -0.21794,0.323125 -0.420567,0.65708 -0.607198,1.001489 -0.186631,0.344408 -0.357247,0.699298 -0.510563,1.062984 -0.153316,0.363686 -0.289215,0.736287 -0.40721,1.117245 -0.117995,0.380956 -0.218021,0.770112 -0.29869,1.166337 -0.08067,0.396223 -0.142114,0.799744 -0.183451,1.209228 -0.04134,0.409485 -0.06253,0.825178 -0.06253,1.245919 v 10.987443 h 9.999908 v -0.987537 c 0,-0.420739 0.02119,-0.836435 0.06253,-1.245918 0.04134,-0.409485 0.102784,-0.813005 0.183452,-1.209229 0.08067,-0.396224 0.180695,-0.785379 0.298689,-1.166337 0.117995,-0.380958 0.253895,-0.753559 0.407212,-1.117245 0.153313,-0.363685 0.323932,-0.718058 0.510563,-1.062467 0.186631,-0.344409 0.389773,-0.67888 0.607715,-1.002006 0.21794,-0.323126 0.450903,-0.634989 0.698148,-0.934827 0.247246,-0.299837 0.508354,-0.587418 0.782898,-0.861963 0.274545,-0.274543 0.562642,-0.53617 0.86248,-0.783414 0.299837,-0.247246 0.611701,-0.480208 0.934826,-0.698149 0.323127,-0.217941 0.657081,-0.421084 1.00149,-0.607715 0.344407,-0.186631 0.699298,-0.35673 1.062984,-0.510046 0.363686,-0.153316 0.736288,-0.289732 1.117244,-0.407727 0.380958,-0.117995 0.770114,-0.217504 1.166337,-0.298173 0.396225,-0.08067 0.799744,-0.142114 1.209229,-0.183452 0.409485,-0.04134 0.825178,-0.06253 1.245919,-0.06253 h 35.697045 c 0.42074,0 0.83643,0.02119 1.24592,0.06253 0.40948,0.04134 0.813,0.102783 1.20923,0.183452 0.39622,0.08067 0.78486,0.180178 1.16582,0.298173 0.38096,0.117995 0.75407,0.254411 1.11776,0.407727 0.36369,0.153316 0.71806,0.323415 1.06247,0.510046 0.34441,0.186631 0.67888,0.389774 1.002,0.607715 0.32313,0.217941 0.63499,0.450903 0.93483,0.698149 0.29984,0.247244 0.58742,0.508871 0.86196,0.783414 0.27455,0.274545 0.53617,0.562126 0.78342,0.861963 0.24724,0.299838 0.4802,0.611701 0.69815,0.934827 0.21794,0.323126 0.42056,0.657597 0.60719,1.002006 0.18664,0.344409 0.35725,0.698782 0.51057,1.062467 0.15331,0.363686 0.28973,0.736287 0.40772,1.117245 0.118,0.380958 0.21751,0.770113 0.29818,1.166337 0.0807,0.396224 0.14211,0.799744 0.18345,1.209229 0.0413,0.409483 0.0625,0.825179 0.0625,1.245918 v 0.987537 h 10.00042 V 43.031237 c 0,-0.420741 -0.0212,-0.836434 -0.0625,-1.245919 -0.0413,-0.409484 -0.1033,-0.813005 -0.18397,-1.209228 -0.0807,-0.396225 -0.18017,-0.785381 -0.29817,-1.166337 -0.11799,-0.380958 -0.25441,-0.753559 -0.40773,-1.117245 -0.15331,-0.363686 -0.32341,-0.718576 -0.51004,-1.062984 -0.18663,-0.344409 -0.38978,-0.678364 -0.60772,-1.001489 -0.21794,-0.323127 -0.4509,-0.634989 -0.69815,-0.934827 -0.24724,-0.299838 -0.50887,-0.587935 -0.78341,-0.86248 -0.27455,-0.274543 -0.56213,-0.535652 -0.86196,-0.782898 -0.29984,-0.247244 -0.6117,-0.480208 -0.93483,-0.698148 -0.32313,-0.217941 -0.6576,-0.421084 -1.00201,-0.607715 -0.34441,-0.186631 -0.69878,-0.356731 -1.06246,-0.510047 -0.36369,-0.153314 -0.73629,-0.289732 -1.11725,-0.407727 -0.38096,-0.117994 -0.77011,-0.218021 -1.16634,-0.298689 -0.39622,-0.08067 -0.79974,-0.142115 -1.20922,-0.183452 -0.40949,-0.04134 -0.82518,-0.06253 -1.24592,-0.06253 z"
       style="opacity:0.86;fill:#e0fbfc;stroke-width:0.692517"
       id="path4" />
  </g>
</svg>
